<svg width="68" height="76" viewBox="0 0 68 76" fill="none" xmlns="http://www.w3.org/2000/svg">
<path fill-rule="evenodd" clip-rule="evenodd" d="M8 0C3.58172 0 0 3.58172 0 8V46C0 50.4183 3.58172 54 8 54H38C42.4183 54 46 50.4183 46 46V8C46 3.58172 42.4183 0 38 0H8ZM12 16C10.8954 16 10 16.8954 10 18C10 19.1046 10.8954 20 12 20H34C35.1046 20 36 19.1046 36 18C36 16.8954 35.1046 16 34 16H12ZM10 28C10 26.8954 10.8954 26 12 26H34C35.1046 26 36 26.8954 36 28C36 29.1046 35.1046 30 34 30H12C10.8954 30 10 29.1046 10 28ZM12 36C10.8954 36 10 36.8954 10 38C10 39.1046 10.8954 40 12 40H34C35.1046 40 36 39.1046 36 38C36 36.8954 35.1046 36 34 36H12Z" fill="#F3F3F3"/>
<path fill-rule="evenodd" clip-rule="evenodd" d="M22 60V74.3503C22 75.1013 22.7968 75.5843 23.4626 75.2369L26.8249 73.4827C27.4045 73.1802 28.0955 73.1802 28.6751 73.4827L32.5749 75.5173C33.1545 75.8198 33.8455 75.8198 34.4251 75.5173L38.3249 73.4827C38.9045 73.1802 39.5955 73.1802 40.1751 73.4827L44.0749 75.5173C44.6545 75.8198 45.3455 75.8198 45.9251 75.5173L49.8249 73.4827C50.4045 73.1802 51.0955 73.1802 51.6751 73.4827L55.5749 75.5173C56.1545 75.8198 56.8455 75.8198 57.4251 75.5173L61.3249 73.4827C61.9045 73.1802 62.5955 73.1802 63.1751 73.4827L66.5374 75.2369C67.2032 75.5843 68 75.1013 68 74.3503V33C68 28.5817 64.4183 25 60 25H52V46C52 53.732 45.732 60 38 60H22Z" fill="#F3F3F3"/>
</svg>
