<svg width="96" height="72" viewBox="0 0 96 72" fill="none" xmlns="http://www.w3.org/2000/svg">
<path d="M50.9653 70.8266C49.4779 72.3912 46.9517 72.3912 45.4643 70.8266L1.44899 24.527C-0.79567 22.1659 0.909744 18.3129 4.1995 18.3129L92.2302 18.3129C95.5199 18.3129 97.2253 22.1659 94.9807 24.527L50.9653 70.8266Z" fill="url(#paint0_linear)"/>
<path d="M13.7848 1.50748C14.4731 0.561455 15.5844 0 16.7685 0H78.9953C80.1795 0 81.2908 0.561454 81.9791 1.50748L95.0744 19.5068C96.8079 21.8894 95.0731 25.199 92.0907 25.199H3.67317C0.69077 25.199 -1.04403 21.8894 0.689449 19.5068L13.7848 1.50748Z" fill="url(#paint1_linear)"/>
<path opacity="0.5" d="M19.7752 7.77636C20.1539 7.28668 20.7381 7 21.3572 7H74.2219C74.829 7 75.4032 7.27575 75.7828 7.74956L84.3347 18.4247C85.5275 19.9136 84.138 22.1864 82.2586 21.8581C75.4894 20.6759 63.2111 19 48 19C32.673 19 20.3237 20.7015 13.5877 21.8851C11.7255 22.2123 10.3324 19.9846 11.4891 18.4891L19.7752 7.77636Z" fill="url(#paint2_linear)"/>
<path opacity="0.5" d="M48.9597 64.7209L59.4459 28.8932C59.7531 27.8434 59.1604 26.7478 58.1002 26.4787C55.765 25.8861 51.661 25 48 25C44.339 25 40.235 25.8861 37.8998 26.4787C36.8396 26.7478 36.2469 27.8434 36.5541 28.8932L47.0403 64.7209C47.3209 65.6797 48.6791 65.6797 48.9597 64.7209Z" fill="url(#paint3_linear)"/>
<defs>
<linearGradient id="paint0_linear" x1="48" y1="-3.42905e-08" x2="48.4949" y2="72.0688" gradientUnits="userSpaceOnUse">
<stop stop-color="#00D1FF"/>
<stop offset="1" stop-color="#0066FF"/>
</linearGradient>
<linearGradient id="paint1_linear" x1="48" y1="-3.42905e-08" x2="48.4949" y2="72.0688" gradientUnits="userSpaceOnUse">
<stop stop-color="#00D1FF"/>
<stop offset="1" stop-color="#0066FF"/>
</linearGradient>
<linearGradient id="paint2_linear" x1="48" y1="7" x2="48" y2="23" gradientUnits="userSpaceOnUse">
<stop stop-color="white" stop-opacity="0.66"/>
<stop offset="1" stop-color="white"/>
</linearGradient>
<linearGradient id="paint3_linear" x1="48" y1="25" x2="48" y2="68" gradientUnits="userSpaceOnUse">
<stop stop-color="white"/>
<stop offset="1" stop-color="white" stop-opacity="0"/>
</linearGradient>
</defs>
</svg>
